<svg width="33" height="33" viewBox="0 0 33 33" fill="none" xmlns="http://www.w3.org/2000/svg">
<path d="M16.8589 27.08C16.8589 27.08 4.35889 20.08 4.35889 11.58C4.35914 10.0777 4.8797 8.62182 5.83207 7.45992C6.78443 6.29803 8.10981 5.50183 9.58287 5.2067C11.0559 4.91158 12.5857 5.13573 13.9122 5.84107C15.2387 6.5464 16.2799 7.68937 16.8589 9.07565L16.8589 9.07566C17.4379 7.68938 18.4791 6.54641 19.8056 5.84107C21.132 5.13574 22.6618 4.91158 24.1349 5.2067C25.608 5.50183 26.9333 6.29802 27.8857 7.45992C28.8381 8.62182 29.3586 10.0777 29.3589 11.58C29.3589 20.08 16.8589 27.08 16.8589 27.08Z" stroke="#EF6C00" stroke-width="2" stroke-linecap="round" stroke-linejoin="round"/>
</svg>
